<?xml version="1.0" encoding="UTF-8"?>
<!DOCTYPE svg PUBLIC "-//W3C//DTD SVG 1.1//EN" "http://www.w3.org/Graphics/SVG/1.1/DTD/svg11.dtd">
<!-- Creator: CorelDRAW -->
<svg xmlns="http://www.w3.org/2000/svg" xml:space="preserve" width="6.23513in" height="1.03828in" version="1.1" style="shape-rendering:geometricPrecision; text-rendering:geometricPrecision; image-rendering:optimizeQuality; fill-rule:evenodd; clip-rule:evenodd"
viewBox="0 0 5860.22 975.85"
 xmlns:xlink="http://www.w3.org/1999/xlink"
 xmlns:xodm="http://www.corel.com/coreldraw/odm/2003">
 <defs>
  <style type="text/css">
   <![CDATA[
    .fil1 {fill:none}
    .fil0 {fill:#282829}
   ]]>
  </style>
   <clipPath id="id0">
    <path d="M81.15 0l5697.92 0c44.64,0 81.15,36.51 81.15,81.15l0 813.54c0,44.64 -36.52,81.15 -81.15,81.15l-5697.92 0c-44.64,0 -81.15,-36.51 -81.15,-81.15l0 -813.54c0,-44.64 36.51,-81.15 81.15,-81.15z"/>
   </clipPath>
 </defs>
 <g id="Layer_x0020_1">
  <metadata id="CorelCorpID_0Corel-Layer"/>
  <path class="fil0" d="M81.15 0l5697.92 0c44.64,0 81.15,36.51 81.15,81.15l0 813.54c0,44.64 -36.52,81.15 -81.15,81.15l-5697.92 0c-44.64,0 -81.15,-36.51 -81.15,-81.15l0 -813.54c0,-44.64 36.51,-81.15 81.15,-81.15z"/>
  <g style="clip-path:url(#id0)">
   <g id="_2262964258992">
    <image x="621.82" y="-190.88" width="4616.57" height="1357.61" xlink:href="jazz_Images\jazz_ImgID1.png"/>
   </g>
  </g>
  <path class="fil1" d="M81.15 0l5697.92 0c44.64,0 81.15,36.51 81.15,81.15l0 813.54c0,44.64 -36.52,81.15 -81.15,81.15l-5697.92 0c-44.64,0 -81.15,-36.51 -81.15,-81.15l0 -813.54c0,-44.64 36.51,-81.15 81.15,-81.15z"/>
 </g>
</svg>
