<?xml version="1.0" encoding="UTF-8"?>
<!DOCTYPE svg PUBLIC "-//W3C//DTD SVG 1.1//EN" "http://www.w3.org/Graphics/SVG/1.1/DTD/svg11.dtd">
<!-- Creator: CorelDRAW -->
<svg xmlns="http://www.w3.org/2000/svg" xml:space="preserve" width="0.907665in" height="1.05659in" version="1.1" style="shape-rendering:geometricPrecision; text-rendering:geometricPrecision; image-rendering:optimizeQuality; fill-rule:evenodd; clip-rule:evenodd"
viewBox="0 0 130.12 151.47"
 xmlns:xlink="http://www.w3.org/1999/xlink"
 xmlns:xodm="http://www.corel.com/coreldraw/odm/2003">
 <defs>
  <style type="text/css">
   <![CDATA[
    .fil3 {fill:none}
    .fil0 {fill:black;fill-rule:nonzero}
    .fil1 {fill:url(#id1);fill-rule:nonzero}
    .fil2 {fill:url(#id2);fill-rule:nonzero}
   ]]>
  </style>
   <clipPath id="id0">
    <path d="M-0 151.47l130.12 0 0 -151.47 -130.12 0 0 151.47z"/>
   </clipPath>
  <linearGradient id="id1" gradientUnits="userSpaceOnUse" x1="16.63" y1="0" x2="74.17" y2="96.89">
   <stop offset="0" style="stop-opacity:1; stop-color:#FF9182"/>
   <stop offset="1" style="stop-opacity:1; stop-color:#FF2709"/>
  </linearGradient>
  <linearGradient id="id2" gradientUnits="userSpaceOnUse" xlink:href="#id1" x1="13.65" y1="135.34" x2="18.56" y2="166.68">
  </linearGradient>
 </defs>
 <g id="Layer_x0020_1">
  <metadata id="CorelCorpID_0Corel-Layer"/>
  <g>
  </g>
  <g style="clip-path:url(#id0)">
   <g id="_2262826130016">
    <path class="fil0" d="M27.23 70.94c0.03,-1.23 0.07,-2.3 0.1,-3.21 0.03,-0.89 0.03,-1.7 -0.01,-2.4 -0.07,-1.08 -0.25,-1.84 -0.51,-2.3 -0.26,-0.45 -0.5,-0.67 -0.69,-0.66 -0.16,0.01 -0.32,0.13 -0.47,0.37 -0.15,0.23 -0.28,0.53 -0.38,0.92 -0.1,0.38 -0.18,0.82 -0.23,1.32 -0.04,0.5 -0.06,1.01 -0.01,1.54 0.06,0.75 0.19,1.49 0.43,2.22 0.22,0.73 0.6,1.4 1.11,1.99l0 0.03c0,0.04 -0.04,0.07 -0.15,0.09 -0.18,0.01 -0.42,-0.01 -0.76,-0.07 -0.34,-0.06 -0.7,-0.15 -1.07,-0.26 -0.37,-0.12 -0.7,-0.25 -1.01,-0.4 -0.31,-0.15 -0.5,-0.29 -0.57,-0.44 -0.37,-0.67 -0.63,-1.3 -0.81,-1.87 -0.18,-0.57 -0.28,-1.11 -0.31,-1.61 -0.06,-0.82 0.04,-1.52 0.31,-2.12 0.26,-0.6 0.62,-1.1 1.06,-1.51 0.44,-0.41 0.94,-0.72 1.5,-0.94 0.56,-0.22 1.09,-0.35 1.58,-0.38 0.31,-0.01 0.62,0 0.91,0.04 1.35,0.22 2.39,0.42 3.12,0.6 0.73,0.18 1.29,0.42 1.66,0.76 0.37,0.32 0.59,0.76 0.69,1.29 0.1,0.54 0.18,1.29 0.25,2.25 0.06,0.91 0.1,1.93 0.1,3.06 0,1.13 0.03,2.31 0.07,3.57 0,1.71 -0.09,3.5 -0.26,5.34 -0.18,1.84 -0.44,3.66 -0.81,5.44 -0.37,1.77 -0.81,3.47 -1.32,5.08 -0.51,1.61 -1.13,3.03 -1.83,4.26 -0.7,1.23 -1.48,2.22 -2.35,2.97 -0.87,0.75 -1.82,1.16 -2.86,1.23 -1.19,0.09 -2.21,-0.15 -3.11,-0.67 -0.89,-0.53 -1.66,-1.26 -2.29,-2.17 -0.63,-0.91 -1.13,-1.95 -1.47,-3.12 -0.35,-1.17 -0.56,-2.36 -0.65,-3.56 -0.09,-1.17 -0.04,-2.34 0.1,-3.5 0.15,-1.16 0.41,-2.22 0.78,-3.19 0.37,-0.97 0.84,-1.79 1.42,-2.47 0.59,-0.67 1.26,-1.13 2.05,-1.36 0.84,0.2 1.63,0.53 2.36,0.94 0.73,0.42 1.41,1 2.04,1.73 -0.03,-0.03 -0.13,-0.06 -0.32,-0.12 -0.19,-0.06 -0.42,-0.07 -0.72,-0.06 -0.34,0.03 -0.72,0.15 -1.14,0.37 -0.43,0.22 -0.82,0.63 -1.22,1.21 -0.4,0.59 -0.76,1.42 -1.1,2.49 -0.34,1.07 -0.59,2.46 -0.76,4.17 -0.07,0.73 -0.12,1.39 -0.13,1.99 -0.01,0.6 -0.01,1.13 0.01,1.61 0.06,0.86 0.18,1.55 0.34,2.06 0.16,0.51 0.35,0.89 0.54,1.17 0.22,0.32 0.45,0.54 0.7,0.64 0.07,0.01 0.19,0.03 0.37,0.01 0.65,-0.04 1.23,-0.4 1.75,-1.07 0.51,-0.66 0.95,-1.54 1.35,-2.59 0.38,-1.07 0.72,-2.28 1,-3.64 0.28,-1.36 0.53,-2.77 0.72,-4.23 0.2,-1.45 0.37,-2.88 0.48,-4.3 0.12,-1.4 0.21,-2.71 0.28,-3.88 0.06,-1.17 0.1,-2.18 0.13,-3 -0.01,-0.86 0,-1.4 0.01,-1.68z"/>
    <path class="fil0" d="M46.61 92.57c-1.07,-0.15 -1.91,-0.35 -2.51,-0.64 -0.6,-0.28 -1.04,-0.63 -1.32,-1.02 -0.28,-0.41 -0.44,-0.85 -0.45,-1.33 -0.01,-0.48 0.01,-1 0.12,-1.54 0.1,-0.54 0.22,-1.1 0.38,-1.65 0.15,-0.57 0.26,-1.13 0.32,-1.68 -0.07,0.06 -0.22,0.19 -0.44,0.4 -0.23,0.2 -0.53,0.45 -0.9,0.72 -0.37,0.26 -0.79,0.51 -1.26,0.75 -0.47,0.22 -0.98,0.35 -1.54,0.4 -0.81,-0.42 -1.48,-0.79 -2.04,-1.07 -0.56,-0.29 -1.09,-0.66 -1.6,-1.1 -0.16,-0.16 -0.28,-0.48 -0.38,-1 -0.1,-0.5 -0.12,-1.1 -0.06,-1.79 0.06,-0.69 0.22,-1.45 0.5,-2.28 0.26,-0.83 0.69,-1.67 1.28,-2.52 0.59,-0.85 1.33,-1.67 2.27,-2.47 0.94,-0.8 2.11,-1.54 3.52,-2.18 0.37,0.12 0.88,0.34 1.54,0.66 0.65,0.32 1.31,0.69 1.95,1.13 0.65,0.44 1.23,0.91 1.75,1.42 0.51,0.51 0.84,1 0.94,1.48 0.15,0.47 0.04,0.91 -0.32,1.3 -0.37,0.4 -0.81,0.73 -1.29,1.01 0.43,0.26 0.7,0.54 0.82,0.85 0.03,0.07 0.01,0.35 -0.04,0.85 -0.06,0.5 -0.15,1.11 -0.28,1.83 -0.12,0.72 -0.25,1.51 -0.38,2.34 -0.13,0.85 -0.26,1.64 -0.38,2.4 -0.12,0.76 -0.22,1.42 -0.29,1.98 -0.09,0.56 -0.13,0.92 -0.15,1.07 0.06,0.22 0.25,0.1 0.54,-0.32 0.29,-0.44 0.65,-1.04 1.04,-1.83 0.4,-0.79 0.81,-1.67 1.25,-2.65 0.44,-0.97 0.85,-1.89 1.23,-2.74 0.38,-0.85 0.7,-1.57 0.98,-2.15 0.28,-0.59 0.44,-0.88 0.48,-0.88 0.16,-0.02 0.35,0.07 0.54,0.23 0.19,0.16 0.29,0.32 0.31,0.47 -0.06,0.15 -0.21,0.56 -0.44,1.22 -0.23,0.66 -0.53,1.43 -0.88,2.33 -0.35,0.89 -0.73,1.83 -1.16,2.82 -0.43,0.98 -0.85,1.87 -1.29,2.68 -0.43,0.81 -0.85,1.45 -1.26,1.96 -0.44,0.47 -0.81,0.67 -1.1,0.57zm-3.45 -13.98c-0.45,0.18 -0.97,0.59 -1.56,1.22 -0.59,0.63 -1.13,1.3 -1.63,2.02 -0.5,0.72 -0.89,1.38 -1.19,2.01 -0.29,0.63 -0.4,1.02 -0.31,1.21 0.18,0.16 0.53,0.1 1.03,-0.15 0.5,-0.25 1.01,-0.66 1.55,-1.23 0.53,-0.57 1.01,-1.29 1.44,-2.15 0.43,-0.86 0.65,-1.83 0.66,-2.93zm2.2 0.29c0.26,-0.07 0.5,-0.16 0.72,-0.31 0.22,-0.13 0.48,-0.31 0.78,-0.53 0.25,-0.19 0.41,-0.37 0.47,-0.53 0.06,-0.16 0.06,-0.29 0.01,-0.4 -0.06,-0.1 -0.15,-0.19 -0.28,-0.25 -0.13,-0.06 -0.23,-0.12 -0.34,-0.16 -0.32,0.15 -0.67,0.31 -1.06,0.48 -0.38,0.19 -0.72,0.35 -1.01,0.53 -0.31,0.16 -0.54,0.31 -0.73,0.42 -0.19,0.12 -0.26,0.19 -0.23,0.22l1.67 0.51z"/>
    <path class="fil0" d="M61.13 80.47c0.31,-0.19 0.65,-0.5 1.04,-0.91 0.4,-0.41 0.76,-0.85 1.13,-1.32 0.35,-0.45 0.66,-0.92 0.92,-1.39 0.26,-0.47 0.4,-0.86 0.43,-1.21 0.19,0.06 0.38,0.13 0.56,0.22 0.13,0.09 0.26,0.22 0.4,0.37 0.13,0.16 0.21,0.37 0.22,0.64 0,0.26 -0.09,0.59 -0.26,0.97 -0.16,0.38 -0.41,0.79 -0.75,1.23 -0.34,0.44 -0.72,0.89 -1.17,1.35 -0.45,0.45 -0.97,0.89 -1.54,1.32 0.15,0.28 0.28,0.6 0.41,0.97 0.13,0.37 0.25,0.75 0.35,1.16 0.1,0.41 0.19,0.8 0.28,1.21 0.09,0.41 0.15,0.78 0.16,1.11 0.12,1.3 0.04,2.59 -0.22,3.89 -0.26,1.3 -0.66,2.55 -1.19,3.75 -0.53,1.2 -1.17,2.33 -1.92,3.38 -0.75,1.05 -1.54,1.99 -2.39,2.8 -0.84,0.81 -1.7,1.46 -2.58,1.98 -0.88,0.51 -1.73,0.81 -2.55,0.88 -0.45,-0.01 -1,-0.23 -1.58,-0.63 -0.6,-0.41 -1.19,-0.88 -1.78,-1.42 -0.59,-0.54 -1.11,-1.1 -1.58,-1.67 -0.47,-0.57 -0.82,-1.02 -1.04,-1.38 -0.28,-0.44 -0.22,-1.07 0.15,-1.87 0.37,-0.81 0.91,-1.71 1.64,-2.71 0.73,-1 1.58,-2.03 2.58,-3.12 1,-1.08 1.97,-2.14 2.92,-3.15 0.95,-1.01 1.85,-1.92 2.68,-2.74 0.82,-0.82 1.44,-1.46 1.85,-1.92 -0.01,-0.26 -0.12,-0.64 -0.28,-1.14 -0.16,-0.5 -0.38,-0.97 -0.65,-1.42 -0.26,-0.45 -0.54,-0.8 -0.85,-1.04 -0.31,-0.25 -0.62,-0.25 -0.91,-0.01 -0.12,0.1 -0.26,0.19 -0.44,0.25 -0.18,0.06 -0.37,0.07 -0.56,0.06 -0.19,-0.03 -0.4,-0.09 -0.6,-0.22 -0.2,-0.12 -0.38,-0.31 -0.54,-0.56 0.78,-0.76 1.67,-1.48 2.7,-2.18 1.03,-0.7 2.1,-1.48 3.2,-2.33 0.13,-0.1 0.07,-0.16 -0.19,-0.15 -0.26,0 -0.63,0.06 -1.11,0.15 -0.48,0.09 -1.03,0.23 -1.64,0.41 -0.62,0.18 -1.22,0.38 -1.79,0.61 -0.57,0.23 -1.1,0.5 -1.58,0.81 -0.47,0.29 -0.81,0.61 -1.01,0.94 0,0.03 -0.09,-0.04 -0.25,-0.22 -0.18,-0.18 -0.37,-0.4 -0.57,-0.67 -0.22,-0.28 -0.41,-0.6 -0.62,-0.95 -0.19,-0.37 -0.32,-0.73 -0.41,-1.1 -0.07,-0.37 -0.04,-0.73 0.07,-1.07 0.12,-0.35 0.41,-0.64 0.85,-0.89 0.28,-0.16 0.68,-0.34 1.17,-0.54 0.51,-0.19 1.07,-0.38 1.7,-0.56 0.63,-0.18 1.29,-0.34 1.99,-0.47 0.7,-0.13 1.38,-0.22 2.04,-0.25 0.65,-0.03 1.25,-0.02 1.8,0.07 0.56,0.09 1,0.25 1.32,0.48 0.18,0.13 0.31,0.37 0.38,0.72 0.07,0.35 0.12,0.73 0.12,1.16 0,0.42 0,0.85 -0.02,1.27 -0.01,0.42 -0.04,0.76 -0.07,1 -0.97,0.63 -1.76,1.19 -2.38,1.67 -0.6,0.48 -1.14,0.95 -1.63,1.36 0.48,0.26 0.88,0.5 1.2,0.73 0.32,0.23 0.6,0.47 0.87,0.7 0.26,0.23 0.5,0.48 0.72,0.75 0.23,0.28 0.5,0.56 0.81,0.85zm-12.39 16.6c0.16,0.18 0.45,0.22 0.88,0.1 0.43,-0.12 0.88,-0.32 1.38,-0.61 0.48,-0.31 0.97,-0.64 1.44,-1.04 0.47,-0.4 0.82,-0.78 1.07,-1.13 0.13,-0.18 0.38,-0.51 0.73,-1 0.35,-0.48 0.75,-1.04 1.19,-1.68 0.44,-0.63 0.9,-1.32 1.36,-2.05 0.47,-0.73 0.88,-1.45 1.25,-2.14 0.37,-0.69 0.65,-1.33 0.87,-1.93 0.22,-0.6 0.29,-1.07 0.25,-1.43 -0.35,0.19 -0.87,0.59 -1.55,1.2 -0.69,0.6 -1.44,1.32 -2.24,2.15 -0.81,0.83 -1.64,1.73 -2.48,2.69 -0.84,0.97 -1.58,1.9 -2.24,2.8 -0.65,0.91 -1.16,1.71 -1.52,2.44 -0.37,0.73 -0.48,1.27 -0.37,1.62z"/>
    <path class="fil0" d="M75.96 79.44c0.31,-0.19 0.65,-0.5 1.04,-0.91 0.4,-0.41 0.76,-0.85 1.13,-1.32 0.35,-0.45 0.66,-0.92 0.92,-1.39 0.26,-0.47 0.4,-0.86 0.43,-1.21 0.19,0.06 0.38,0.13 0.56,0.22 0.13,0.09 0.25,0.22 0.4,0.37 0.13,0.16 0.21,0.37 0.22,0.64 0,0.26 -0.09,0.59 -0.26,0.97 -0.16,0.38 -0.41,0.79 -0.75,1.23 -0.34,0.44 -0.72,0.89 -1.17,1.35 -0.45,0.45 -0.97,0.89 -1.54,1.32 0.15,0.28 0.28,0.6 0.41,0.97 0.13,0.37 0.25,0.75 0.35,1.16 0.1,0.41 0.19,0.8 0.28,1.21 0.09,0.41 0.15,0.78 0.16,1.11 0.12,1.3 0.04,2.59 -0.22,3.89 -0.26,1.3 -0.66,2.55 -1.19,3.75 -0.53,1.2 -1.17,2.33 -1.92,3.38 -0.75,1.05 -1.54,1.99 -2.39,2.8 -0.84,0.8 -1.7,1.46 -2.58,1.98 -0.88,0.51 -1.73,0.8 -2.55,0.88 -0.45,-0.01 -1,-0.23 -1.58,-0.63 -0.6,-0.41 -1.19,-0.88 -1.77,-1.42 -0.59,-0.54 -1.11,-1.1 -1.58,-1.67 -0.47,-0.57 -0.82,-1.02 -1.04,-1.38 -0.28,-0.44 -0.22,-1.07 0.15,-1.87 0.37,-0.8 0.91,-1.71 1.64,-2.71 0.73,-1 1.58,-2.03 2.58,-3.12 1,-1.08 1.97,-2.14 2.92,-3.15 0.95,-1.01 1.85,-1.92 2.68,-2.74 0.82,-0.82 1.44,-1.46 1.85,-1.92 -0.01,-0.26 -0.12,-0.64 -0.28,-1.14 -0.16,-0.5 -0.38,-0.97 -0.65,-1.42 -0.26,-0.45 -0.54,-0.8 -0.85,-1.04 -0.31,-0.25 -0.62,-0.25 -0.91,-0.01 -0.12,0.1 -0.26,0.19 -0.44,0.25 -0.18,0.06 -0.37,0.07 -0.56,0.06 -0.19,-0.03 -0.4,-0.09 -0.6,-0.22 -0.21,-0.12 -0.38,-0.31 -0.54,-0.56 0.78,-0.76 1.67,-1.48 2.7,-2.18 1.03,-0.7 2.1,-1.48 3.2,-2.33 0.13,-0.1 0.07,-0.16 -0.19,-0.15 -0.26,0 -0.63,0.06 -1.12,0.15 -0.48,0.09 -1.03,0.23 -1.64,0.41 -0.62,0.18 -1.22,0.38 -1.79,0.61 -0.57,0.23 -1.1,0.5 -1.58,0.8 -0.47,0.29 -0.81,0.61 -1.01,0.94 0,0.03 -0.09,-0.04 -0.25,-0.22 -0.18,-0.18 -0.37,-0.4 -0.57,-0.67 -0.22,-0.28 -0.41,-0.6 -0.62,-0.95 -0.19,-0.37 -0.32,-0.73 -0.41,-1.1 -0.07,-0.37 -0.04,-0.73 0.07,-1.07 0.12,-0.35 0.41,-0.64 0.85,-0.89 0.28,-0.16 0.67,-0.34 1.17,-0.54 0.51,-0.19 1.07,-0.38 1.7,-0.56 0.63,-0.18 1.29,-0.34 1.99,-0.47 0.7,-0.13 1.38,-0.22 2.04,-0.25 0.65,-0.03 1.25,-0.01 1.8,0.07 0.56,0.09 1,0.25 1.32,0.48 0.18,0.13 0.31,0.37 0.38,0.72 0.07,0.35 0.12,0.73 0.12,1.16 0,0.42 0,0.85 -0.01,1.27 -0.01,0.42 -0.04,0.76 -0.07,1 -0.97,0.63 -1.76,1.19 -2.38,1.67 -0.6,0.48 -1.14,0.95 -1.63,1.36 0.48,0.26 0.88,0.5 1.2,0.73 0.32,0.23 0.6,0.47 0.87,0.7 0.26,0.23 0.5,0.48 0.72,0.75 0.22,0.28 0.5,0.56 0.81,0.85zm-12.39 16.58c0.16,0.18 0.45,0.22 0.88,0.1 0.42,-0.12 0.88,-0.32 1.38,-0.61 0.48,-0.31 0.97,-0.64 1.44,-1.04 0.47,-0.4 0.82,-0.78 1.07,-1.13 0.13,-0.18 0.38,-0.51 0.73,-1 0.35,-0.48 0.75,-1.04 1.19,-1.68 0.44,-0.63 0.89,-1.32 1.36,-2.05 0.47,-0.73 0.88,-1.45 1.25,-2.14 0.37,-0.69 0.65,-1.33 0.87,-1.93 0.22,-0.6 0.29,-1.07 0.25,-1.43 -0.35,0.19 -0.87,0.59 -1.56,1.2 -0.69,0.6 -1.44,1.32 -2.24,2.15 -0.81,0.83 -1.64,1.73 -2.48,2.69 -0.84,0.97 -1.58,1.9 -2.24,2.79 -0.65,0.91 -1.16,1.71 -1.53,2.44 -0.37,0.73 -0.48,1.27 -0.37,1.62z"/>
    <path class="fil0" d="M90.14 77.61c-0.22,0.38 -0.48,0.86 -0.81,1.46 -0.32,0.6 -0.68,1.24 -1.07,1.9 -0.4,0.67 -0.81,1.33 -1.26,1.99 -0.45,0.66 -0.91,1.23 -1.39,1.71 -0.47,0.48 -0.95,0.83 -1.44,1.08 -0.48,0.23 -0.94,0.28 -1.35,0.12 -0.44,-0.13 -0.91,-0.32 -1.38,-0.54 -0.47,-0.22 -0.91,-0.48 -1.29,-0.8 -0.38,-0.31 -0.7,-0.64 -0.98,-1.02 -0.26,-0.37 -0.42,-0.76 -0.48,-1.2 -0.15,-1.02 -0.13,-2.17 0.06,-3.41 0.18,-1.24 0.41,-2.43 0.7,-3.54 0.28,-1.11 0.59,-2.09 0.88,-2.93 0.31,-0.83 0.54,-1.35 0.69,-1.55 0.48,-0.44 1.07,-0.73 1.79,-0.89 0.72,-0.15 1.39,-0.2 2.04,-0.16 0.65,0.04 1.19,0.13 1.61,0.26 0.44,0.15 0.62,0.28 0.56,0.44 -0.29,0.6 -0.66,1.35 -1.09,2.22 -0.43,0.89 -0.84,1.83 -1.23,2.82 -0.4,1 -0.79,1.99 -1.16,3 -0.37,1.01 -0.65,1.92 -0.82,2.74 -0.19,0.82 -0.26,1.52 -0.23,2.11 0.03,0.57 0.23,0.94 0.6,1.08 1.29,-1.35 2.41,-2.72 3.36,-4.13 0.95,-1.4 1.73,-2.88 2.3,-4.42 0.59,-1.54 0.97,-3.16 1.14,-4.86 0.19,-1.7 0.15,-3.54 -0.12,-5.5 0.19,-0.1 0.45,-0.15 0.81,-0.09 0.35,0.04 0.72,0.13 1.09,0.26 0.37,0.13 0.72,0.26 1.04,0.41 0.32,0.15 0.54,0.25 0.68,0.32 0.18,0.1 0.34,0.42 0.47,0.92 0.13,0.51 0.25,1.14 0.37,1.92 0.12,0.76 0.2,1.61 0.29,2.55 0.07,0.94 0.13,1.89 0.16,2.85 0.03,0.97 0.04,1.89 0.04,2.77 0,0.88 -0.03,1.65 -0.07,2.31 0.73,-0.56 1.33,-1.16 1.77,-1.82 0.45,-0.64 0.84,-1.23 1.17,-1.77 0.32,-0.53 0.62,-0.95 0.88,-1.26 0.26,-0.31 0.57,-0.4 0.94,-0.28 0.16,0.13 0.18,0.47 0.06,1.01 -0.12,0.54 -0.38,1.16 -0.78,1.87 -0.4,0.7 -0.94,1.45 -1.63,2.24 -0.69,0.79 -1.51,1.51 -2.48,2.15 -0.09,2.88 -0.34,5.49 -0.75,7.82 -0.41,2.33 -0.88,4.33 -1.41,6.05 -0.53,1.71 -1.09,3.09 -1.63,4.16 -0.56,1.07 -1.04,1.8 -1.45,2.18 -0.48,0.06 -1.01,0.06 -1.58,0 -0.57,-0.06 -1.14,-0.18 -1.72,-0.35 -0.57,-0.18 -1.1,-0.42 -1.57,-0.72 -0.48,-0.31 -0.85,-0.67 -1.1,-1.08 -0.63,-1 -0.98,-2.2 -1.06,-3.6 -0.07,-1.4 0.07,-2.84 0.43,-4.29 0.35,-1.45 0.91,-2.84 1.66,-4.16 0.75,-1.32 1.63,-2.41 2.65,-3.28 0.5,-0.42 0.98,-0.83 1.44,-1.24 0.45,-0.41 0.9,-0.7 1.32,-0.91l0.22 -2.15c-0.03,-0.15 -0.04,-0.34 -0.04,-0.6 0,-0.25 0.01,-0.51 0.03,-0.78 0.01,-0.26 0.03,-0.53 0.06,-0.76 0.06,-0.26 0.07,-0.47 0.06,-0.64zm-6.07 20.77c0.28,-0.22 0.59,-0.61 0.94,-1.2 0.35,-0.59 0.7,-1.3 1.07,-2.12 0.37,-0.82 0.73,-1.71 1.09,-2.66 0.35,-0.95 0.69,-1.9 1,-2.84 0.31,-0.94 0.59,-1.83 0.81,-2.68 0.23,-0.85 0.41,-1.58 0.54,-2.2 -0.97,0.76 -1.83,1.67 -2.63,2.72 -0.79,1.04 -1.44,2.17 -1.95,3.38 -0.51,1.2 -0.85,2.46 -1.03,3.78 -0.18,1.27 -0.12,2.56 0.16,3.82z"/>
    <path class="fil0" d="M104.87 74.17c0.48,-0.32 1,-0.67 1.54,-1.07 0.54,-0.38 1.04,-0.78 1.48,-1.16 0.44,-0.38 0.79,-0.73 1.06,-1.05 0.25,-0.32 0.32,-0.57 0.22,-0.76 -0.26,-0.22 -0.65,-0.29 -1.16,-0.21 -0.51,0.09 -1.07,0.28 -1.69,0.59 -0.6,0.31 -1.22,0.7 -1.85,1.19 -0.62,0.48 -1.16,1 -1.6,1.57 -0.44,0.56 -0.76,1.14 -0.95,1.76 -0.19,0.6 -0.16,1.17 0.1,1.71 0.06,0.15 0.12,0.25 0.16,0.31 0.53,0.57 0.97,1.04 1.33,1.41 0.37,0.38 0.68,0.69 0.92,0.95 0.25,0.26 0.47,0.48 0.65,0.67 0.18,0.19 0.35,0.37 0.51,0.53 0.16,-0.13 0.44,-0.37 0.82,-0.69 0.38,-0.32 0.84,-0.72 1.34,-1.16 0.5,-0.44 1.03,-0.91 1.57,-1.39 0.54,-0.48 1.06,-0.95 1.53,-1.39 0.47,-0.44 0.85,-0.83 1.17,-1.19 0.31,-0.35 0.5,-0.61 0.56,-0.78 0.22,0.09 0.41,0.16 0.56,0.25 0.13,0.12 0.25,0.23 0.37,0.37 0.12,0.13 0.18,0.34 0.18,0.6 0.01,0.19 -0.25,0.57 -0.79,1.13 -0.54,0.56 -1.19,1.19 -1.94,1.87 -0.75,0.69 -1.53,1.38 -2.33,2.05 -0.81,0.67 -1.45,1.22 -1.95,1.64 0.45,0.53 0.88,1.08 1.28,1.68 0.41,0.6 0.75,1.24 1.04,1.92 0.29,0.66 0.43,1.42 0.4,2.3 -0.03,0.88 -0.18,1.77 -0.45,2.69 -0.28,0.92 -0.66,1.84 -1.13,2.74 -0.48,0.91 -1.04,1.73 -1.69,2.46 -0.65,0.73 -1.33,1.35 -2.07,1.84 -0.73,0.5 -1.51,0.79 -2.3,0.86 -0.48,-0.01 -1.01,-0.16 -1.57,-0.44 -0.56,-0.28 -1.12,-0.61 -1.66,-1.01 -0.54,-0.4 -1.04,-0.82 -1.51,-1.27 -0.47,-0.45 -0.85,-0.85 -1.14,-1.19 -0.37,-0.44 -0.51,-1 -0.42,-1.7 0.09,-0.69 0.32,-1.45 0.72,-2.25 0.4,-0.82 0.9,-1.67 1.51,-2.55 0.62,-0.89 1.28,-1.74 1.97,-2.55 0.69,-0.8 1.39,-1.55 2.08,-2.22 0.69,-0.67 1.31,-1.21 1.83,-1.61 -0.43,-0.56 -0.94,-1.04 -1.56,-1.45 -0.62,-0.41 -1.22,-0.83 -1.83,-1.27 -0.62,-0.42 -1.19,-0.88 -1.72,-1.33 -0.53,-0.45 -0.92,-1.01 -1.19,-1.64 -0.43,-0.98 -0.54,-2.06 -0.32,-3.23 0.22,-1.17 0.66,-2.28 1.33,-3.34 0.66,-1.05 1.51,-1.95 2.54,-2.69 1.03,-0.75 2.13,-1.19 3.3,-1.32 0.48,0.02 1.01,0.16 1.6,0.44 0.57,0.28 1.14,0.61 1.69,1.01 0.54,0.4 1.06,0.82 1.54,1.27 0.48,0.45 0.87,0.85 1.16,1.19 0.4,0.45 0.59,0.95 0.56,1.51 -0.03,0.54 -0.19,1.08 -0.48,1.6 -0.31,0.51 -0.7,0.98 -1.19,1.41 -0.5,0.42 -1,0.75 -1.53,0.95 -0.53,0.22 -1.03,0.31 -1.51,0.25 -0.45,-0.07 -0.82,-0.34 -1.07,-0.79zm-6.81 19.64c0.23,0.22 0.62,0.19 1.14,-0.1 0.53,-0.29 1.1,-0.73 1.7,-1.33 0.62,-0.6 1.22,-1.32 1.83,-2.14 0.6,-0.83 1.11,-1.67 1.53,-2.53 0.41,-0.86 0.69,-1.7 0.84,-2.52 0.15,-0.82 0.07,-1.52 -0.23,-2.11 -0.5,0.42 -1.06,0.94 -1.67,1.54 -0.62,0.6 -1.2,1.24 -1.79,1.93 -0.59,0.69 -1.13,1.41 -1.64,2.12 -0.51,0.73 -0.94,1.42 -1.28,2.06 -0.32,0.64 -0.54,1.24 -0.66,1.79 -0.1,0.54 -0.03,0.97 0.23,1.29z"/>
    <path class="fil0" d="M16.89 121.1c0.87,1.1 1.31,2.34 1.31,3.76 0,1.27 -0.31,2.4 -0.94,3.37 -0.63,0.97 -1.54,1.73 -2.71,2.27 -1.19,0.54 -2.58,0.82 -4.21,0.82l-10.31 0 0 -23.83 9.86 0c1.61,0 3.02,0.26 4.2,0.79 1.17,0.53 2.07,1.26 2.67,2.18 0.6,0.94 0.91,1.99 0.91,3.18 0,1.39 -0.37,2.55 -1.11,3.48 -0.75,0.94 -1.73,1.6 -2.96,1.98 1.33,0.23 2.43,0.91 3.32,2.01zm-12.09 -3.79l4.37 0c1.14,0 2.02,-0.25 2.64,-0.76 0.62,-0.51 0.92,-1.24 0.92,-2.2 0,-0.95 -0.31,-1.7 -0.92,-2.22 -0.62,-0.53 -1.5,-0.79 -2.64,-0.79l-4.37 0 0 5.97zm7.55 9.28c0.65,-0.54 0.97,-1.32 0.97,-2.33 0,-1.02 -0.34,-1.83 -1.03,-2.4 -0.69,-0.59 -1.61,-0.86 -2.77,-0.86l-4.72 0 0 6.41 4.83 0c1.17,0 2.07,-0.26 2.73,-0.82z"/>
    <path class="fil0" d="M26.73 107.48l0 14.74c0,1.61 0.43,2.85 1.26,3.7 0.84,0.85 2.02,1.27 3.56,1.27 1.55,0 2.74,-0.42 3.59,-1.27 0.84,-0.85 1.26,-2.09 1.26,-3.7l0 -14.74 4.83 0 0 14.71c0,2.02 -0.44,3.73 -1.32,5.14 -0.88,1.4 -2.05,2.46 -3.52,3.16 -1.47,0.7 -3.11,1.05 -4.91,1.05 -1.77,0 -3.39,-0.35 -4.84,-1.05 -1.45,-0.7 -2.6,-1.76 -3.43,-3.16 -0.85,-1.41 -1.26,-3.12 -1.26,-5.14l0 -14.71 4.78 0z"/>
    <path class="fil0" d="M58.16 131.3l-5.27 -9.28 -2.26 0 0 9.28 -4.78 0 0 -23.81 8.96 0c1.85,0 3.42,0.32 4.72,0.97 1.31,0.64 2.27,1.52 2.92,2.63 0.65,1.1 0.97,2.34 0.97,3.7 0,1.57 -0.45,2.99 -1.36,4.24 -0.91,1.26 -2.27,2.14 -4.06,2.61l5.71 9.66 -5.55 0zm-7.52 -12.86l4 0c1.31,0 2.27,-0.31 2.9,-0.94 0.65,-0.63 0.95,-1.49 0.95,-2.61 0,-1.1 -0.32,-1.95 -0.95,-2.55 -0.65,-0.6 -1.61,-0.91 -2.9,-0.91l-4 0 0 7z"/>
    <path class="fil0" d="M84.41 114.64c-0.54,-1 -1.31,-1.76 -2.26,-2.28 -0.95,-0.53 -2.07,-0.79 -3.36,-0.79 -1.41,0 -2.67,0.32 -3.76,0.95 -1.1,0.64 -1.95,1.55 -2.57,2.74 -0.62,1.19 -0.92,2.55 -0.92,4.1 0,1.59 0.31,2.99 0.94,4.16 0.63,1.19 1.5,2.09 2.61,2.74 1.11,0.64 2.42,0.95 3.9,0.95 1.82,0 3.32,-0.48 4.47,-1.45 1.16,-0.97 1.92,-2.31 2.29,-4.04l-8.21 0 0 -3.66 12.92 0 0 4.16c-0.32,1.65 -1,3.19 -2.05,4.61 -1.06,1.41 -2.41,2.55 -4.05,3.4 -1.66,0.85 -3.51,1.27 -5.56,1.27 -2.3,0 -4.39,-0.51 -6.25,-1.55 -1.86,-1.04 -3.32,-2.47 -4.37,-4.32 -1.06,-1.84 -1.58,-3.94 -1.58,-6.28 0,-2.34 0.53,-4.45 1.58,-6.29 1.06,-1.86 2.52,-3.29 4.37,-4.33 1.86,-1.04 3.93,-1.55 6.2,-1.55 2.68,0 5.03,0.66 7.01,1.96 1.98,1.3 3.36,3.15 4.11,5.52l-5.47 0z"/>
    <polygon class="fil0" points="98.84,111.33 98.84,117.31 106.88,117.31 106.88,121.1 98.84,121.1 98.84,127.4 107.91,127.4 107.91,131.3 94.04,131.3 94.04,107.44 107.89,107.44 107.89,111.33 "/>
    <path class="fil0" d="M124.55 131.3l-5.27 -9.28 -2.26 0 0 9.28 -4.78 0 0 -23.81 8.96 0c1.85,0 3.42,0.32 4.72,0.97 1.31,0.64 2.27,1.52 2.92,2.63 0.65,1.1 0.97,2.34 0.97,3.7 0,1.57 -0.45,2.99 -1.36,4.24 -0.91,1.26 -2.27,2.14 -4.06,2.61l5.71 9.66 -5.55 0zm-7.52 -12.86l4 0c1.31,0 2.27,-0.31 2.9,-0.94 0.63,-0.63 0.95,-1.49 0.95,-2.61 0,-1.1 -0.32,-1.95 -0.95,-2.55 -0.65,-0.6 -1.61,-0.91 -2.9,-0.91l-4 0 0 7z"/>
    <path class="fil1" d="M126.05 56.71c-0.69,-0.35 -1.51,-0.62 -2.29,-0.64 -3.81,-0.16 -7.61,-0.22 -11.43,-0.32 -1.75,-0.04 -3.48,-0.12 -5.22,-0.19 0.29,-0.19 0.6,-0.22 0.9,-0.32 0.69,-0.23 1.42,-0.4 2.04,-0.78 0.91,-0.56 1.38,-1.46 1.2,-2.56 -0.16,-1.05 -0.88,-1.65 -1.83,-1.99 -0.25,-0.09 -0.51,-0.16 -0.78,-0.19 -3.86,-0.44 -7.7,-0.98 -11.57,-1.27 -6.81,-0.53 -13.63,-0.5 -20.43,-0.15 -4.27,0.22 -8.52,0.62 -12.79,0.86 -1.64,0.1 -3.32,0.01 -5.16,0.01 0.47,-0.15 0.78,-0.28 1.1,-0.34 2.51,-0.51 5.03,-0.95 7.54,-1.52 10.74,-2.44 21.69,-3.51 32.62,-4.6 5.71,-0.57 11.46,-0.79 17.18,-1.26 0.91,-0.07 1.85,-0.48 2.63,-0.95 0.87,-0.51 1.14,-1.42 0.87,-2.43 -0.09,-0.32 -0.12,-0.67 -0.18,-1.01 -0.31,-1.76 -0.51,-3.53 -0.94,-5.24 -1.94,-7.84 -5.72,-14.64 -11.71,-20.12 -5.38,-4.92 -11.78,-7.93 -18.81,-9.7 -5.21,-1.32 -10.5,-1.79 -15.83,-1.95 -1.1,0.85 -2.67,1.4 -4.33,1.4 -0.69,-0.01 -1.73,-0.13 -2.16,-1.24 -0.03,-0.07 -0.04,-0.15 -0.07,-0.22 -4.97,0.09 -9.92,0.51 -14.82,1.42 -6.06,1.13 -11.9,2.93 -17.28,6 -8.76,5.02 -14.57,12.31 -16.99,22.17 -0.75,3.04 -1,6.15 -0.92,9.28 0.04,1.92 0.72,3.56 2.42,4.58 0.91,0.54 1.92,0.97 2.95,1.24 2.67,0.7 5.41,0.82 8.14,0.64 5.38,-0.35 10.77,-0.76 16.15,-1.16 2.05,-0.15 4.09,-0.29 6.15,-0.44 -0.16,0.15 -0.34,0.22 -0.53,0.28 -10.31,2.66 -20.39,6.04 -30.35,9.81 -0.62,0.23 -1.23,0.45 -1.83,0.72 -0.94,0.41 -1.54,1.11 -1.66,2.15 -0.12,1.05 0.47,1.76 1.28,2.31 0.73,0.5 1.53,0.75 2.42,0.66 1.1,-0.1 2.19,-0.19 3.29,-0.31 5.22,-0.6 10.43,-1.21 15.65,-1.84 5.24,-0.63 10.46,-1.39 15.71,-1.93 5.82,-0.62 11.68,-1.07 17.51,-1.58 0.65,-0.06 1.31,0 1.97,0 -1.28,0.22 -2.57,0.37 -3.84,0.54 -7.42,1.02 -14.86,1.99 -22.27,3.12 -4.53,0.69 -5.91,1.39 -10.28,2.8 -1.14,0.37 -1.86,1.26 -1.91,2.34 -0.06,1.17 0.6,1.92 1.6,2.4 1.03,0.5 2.11,0.53 3.23,0.4 3.54,-0.42 4,-0.42 7.54,-0.79 4.55,-0.45 9.09,-0.85 13.64,-1.23 4.99,-0.41 9.99,-0.76 14.98,-1.14 3.12,-0.23 6.23,-0.47 9.36,-0.67 3.36,-0.22 6.73,-0.57 10.09,-0.6 5.06,-0.04 10.11,0.12 15.17,0.22 3.05,0.06 6.1,0.23 9.15,0.26 1.13,0.01 2.3,-0.12 3.37,-0.44 0.97,-0.28 1.53,-1.11 1.6,-2.17 0.06,-1.01 -0.35,-1.87 -1.23,-2.33zm-85.69 -41.73c-1,1.43 -2.48,1.98 -4.21,2.12 -0.29,-0.06 -0.65,-0.09 -0.95,-0.19 -1.01,-0.34 -1.35,-1.2 -0.87,-2.15 0.81,-1.54 3.48,-2.63 5.15,-2.14 1.23,0.37 1.61,1.3 0.88,2.36zm9.8 7.13c-1.38,1.81 -3.33,2.53 -5.5,2.71 -1.14,-0.12 -2.32,-0.2 -2.79,-1.42 -0.47,-1.22 0.23,-2.14 1.07,-2.88 1.66,-1.46 3.59,-2.25 5.85,-1.86 1.94,0.34 2.55,1.89 1.36,3.45zm2.38 -17.81c-1,1.43 -2.48,1.98 -4.21,2.12 -0.29,-0.06 -0.65,-0.09 -0.95,-0.19 -1.01,-0.34 -1.35,-1.2 -0.87,-2.15 0.81,-1.54 3.48,-2.63 5.15,-2.14 1.23,0.37 1.61,1.3 0.88,2.36zm1.94 6.6c-0.42,-1.11 0.26,-1.95 1.01,-2.6 1.45,-1.27 3.15,-1.93 5.12,-1.64 1.79,0.26 2.35,1.68 1.28,3.15 -1,1.36 -3.04,2.33 -5.25,2.34 -0.69,-0.03 -1.72,-0.15 -2.16,-1.24z"/>
    <path class="fil2" d="M13.78 151.47c-1.28,-2.09 -0.73,-4.57 1.35,-5.88 2.3,-1.46 4.88,-2.21 7.48,-2.9 5.72,-1.52 11.54,-2.5 17.41,-3.22 6.01,-0.75 12.03,-1.43 18.06,-1.99 5.59,-0.53 11.19,-0.92 16.81,-1.23 7.33,-0.4 14.68,-0.7 22.03,-0.91 4.52,-0.13 9.04,-0.04 13.55,0.06 2.13,0.04 3.98,0.82 5,2.88 0.01,0.04 0.06,0.09 0.06,0.13 1.04,3.63 1.5,7.2 -0.88,10.57 -0.29,0.41 -0.57,0.5 -1.03,0.4 -7.92,-1.86 -15.93,-3.25 -24.01,-4.17 -6.16,-0.7 -12.35,-1.24 -18.57,-1.23 -5.74,0.01 -11.49,0.03 -17.21,0.37 -10.21,0.57 -20.3,2.12 -30.23,4.55 -3.29,0.76 -6.53,1.68 -9.83,2.58z"/>
    <path class="fil0" d="M120.87 66.05c0.62,0.35 1.1,0.85 1.45,1.46 0.35,0.61 0.53,1.32 0.53,2.09 0,0.78 -0.18,1.48 -0.53,2.11 -0.35,0.63 -0.84,1.13 -1.45,1.48 -0.62,0.35 -1.32,0.53 -2.1,0.53 -0.79,0 -1.5,-0.18 -2.11,-0.53 -0.62,-0.35 -1.1,-0.85 -1.45,-1.48 -0.35,-0.63 -0.53,-1.33 -0.53,-2.11 0,-0.78 0.18,-1.48 0.53,-2.09 0.35,-0.61 0.84,-1.11 1.45,-1.46 0.62,-0.35 1.32,-0.53 2.11,-0.53 0.79,-0.01 1.48,0.18 2.1,0.53zm0.26 5.94c0.6,-0.61 0.9,-1.41 0.9,-2.39 0,-0.98 -0.29,-1.77 -0.9,-2.39 -0.6,-0.61 -1.38,-0.92 -2.35,-0.92 -0.98,0 -1.76,0.31 -2.35,0.92 -0.59,0.61 -0.88,1.41 -0.88,2.39 0,0.98 0.29,1.77 0.88,2.39 0.59,0.61 1.36,0.92 2.35,0.92 0.97,0 1.75,-0.31 2.35,-0.92zm-0.79 -2.41c-0.16,0.22 -0.4,0.38 -0.69,0.47l1.13 1.67 -1.26 0.01 -0.97 -1.61 -0.34 0 0 1.61 -1.04 0 0 -4.32 1.94 0c0.45,0 0.82,0.12 1.1,0.37 0.28,0.23 0.41,0.57 0.41,0.98 -0.03,0.32 -0.1,0.6 -0.28,0.82zm-2.14 -0.31l0.82 0c0.15,0 0.28,-0.04 0.37,-0.12 0.1,-0.07 0.15,-0.19 0.15,-0.34 0,-0.15 -0.04,-0.26 -0.15,-0.34 -0.1,-0.07 -0.22,-0.12 -0.37,-0.12l-0.82 0 0 0.91z"/>
    <path class="fil0" d="M97.73 63.14c-1.44,2.85 -2.55,6.22 -2.55,6.22 0,0 0.62,1.54 1.33,1.13 0.72,-0.41 1.23,-4.19 2.14,-4.7 0.92,-0.51 -0.92,-2.65 -0.92,-2.65z"/>
   </g>
  </g>
  <polygon class="fil3" points="-0,151.47 130.12,151.47 130.12,0 -0,0 "/>
 </g>
</svg>
